<svg width="177" height="176" viewBox="0 0 177 176" fill="none" xmlns="http://www.w3.org/2000/svg">
<g clip-path="url(#clip0_2092_6149)">
<path d="M176.27 0H0.269531V176H176.27V0Z" fill="#111111"/>
<path d="M63.9169 70.9125H35.7227V74.33H63.9169V70.9125Z" fill="white"/>
<path d="M63.9169 86.2911H35.7227V89.7086H63.9169V86.2911Z" fill="white"/>
<path d="M43.412 76.0386H35.7227V79.456H43.412V76.0386Z" fill="white"/>
<path d="M63.9276 76.0385H56.2383V79.4559H63.9276V76.0385Z" fill="white"/>
<path d="M63.9276 81.1648H56.2383V84.5823H63.9276V81.1648Z" fill="white"/>
<path d="M43.412 81.1648H35.7227V84.5823H43.412V81.1648Z" fill="white"/>
<path d="M43.412 91.4174H35.7227V94.8348H43.412V91.4174Z" fill="white"/>
<path d="M43.412 96.5436H35.7227V99.9611H43.412V96.5436Z" fill="white"/>
<path d="M43.412 101.67H35.7227V105.087H43.412V101.67Z" fill="white"/>
<path d="M81.8573 76.0391H74.168V79.4565H81.8573V76.0391Z" fill="white"/>
<path d="M81.8612 70.9126H74.1719V74.3301H81.8612V70.9126Z" fill="white"/>
<path d="M81.8573 81.1647H74.168V84.5822H81.8573V81.1647Z" fill="white"/>
<path d="M81.8573 86.2914H74.168V89.7089H81.8573V86.2914Z" fill="white"/>
<path d="M81.8573 91.4175H74.168V94.835H81.8573V91.4175Z" fill="white"/>
<path d="M81.8573 96.5437H74.168V99.9612H81.8573V96.5437Z" fill="white"/>
<path d="M123.297 76.0387H112.617V79.4562H123.297V76.0387Z" fill="white"/>
<path d="M140.82 96.5436H130.141V99.9611H140.82V96.5436Z" fill="white"/>
<path d="M120.307 70.9125H112.617V74.33H120.307V70.9125Z" fill="white"/>
<path d="M140.814 101.67H133.125V105.087H140.814V101.67Z" fill="white"/>
<path d="M120.307 101.67H112.617V105.087H120.307V101.67Z" fill="white"/>
<path d="M120.307 81.1649H112.617V84.5824H120.307V81.1649Z" fill="white"/>
<path d="M127.133 81.1647H122.434V84.5822H127.133V81.1647Z" fill="white"/>
<path d="M120.307 86.2913H112.617V89.7087H120.307V86.2913Z" fill="white"/>
<path d="M129.281 86.2913H124.582V89.7087H129.281V86.2913Z" fill="white"/>
<path d="M120.307 91.4174H112.617V94.8348H120.307V91.4174Z" fill="white"/>
<path d="M131.414 91.4172H126.715V94.8347H131.414V91.4172Z" fill="white"/>
<path d="M120.307 96.5436H112.617V99.9611H120.307V96.5436Z" fill="white"/>
<path d="M140.814 76.0387H133.125V79.4562H140.814V76.0387Z" fill="white"/>
<path d="M140.814 70.9126H133.125V74.3301H140.814V70.9126Z" fill="white"/>
<path d="M140.814 81.1647H133.125V84.5822H140.814V81.1647Z" fill="white"/>
<path d="M140.814 86.2911H133.125V89.7086H140.814V86.2911Z" fill="white"/>
<path d="M140.814 91.4172H133.125V94.8347H140.814V91.4172Z" fill="white"/>
<path d="M102.373 76.0389H94.6836V79.4564H102.373V76.0389Z" fill="white"/>
<path d="M102.373 70.9126H94.6836V74.3301H102.373V70.9126Z" fill="white"/>
<path d="M102.373 81.1647H94.6836V84.5822H102.373V81.1647Z" fill="white"/>
<path d="M102.373 86.2914H94.6836V89.7089H102.373V86.2914Z" fill="white"/>
<path d="M102.373 91.4174H94.6836V94.8348H102.373V91.4174Z" fill="white"/>
<path d="M102.373 96.5437H94.6836V99.9612H102.373V96.5437Z" fill="white"/>
<path d="M85.7089 101.67H78.0195V105.087H85.7089V101.67Z" fill="white"/>
<path d="M92.119 96.5436H84.4297V99.9611H92.119V96.5436Z" fill="white"/>
<path d="M92.119 91.4172H84.4297V94.8347H92.119V91.4172Z" fill="white"/>
<path d="M98.5135 101.67H90.8242V105.087H98.5135V101.67Z" fill="white"/>
</g>
<defs>
<clipPath id="clip0_2092_6149">
<rect width="176.172" height="176" fill="white" transform="translate(0.171875)"/>
</clipPath>
</defs>
</svg>
