<svg width="177" height="176" viewBox="0 0 177 176" fill="none" xmlns="http://www.w3.org/2000/svg">
<g clip-path="url(#clip0_2092_6193)">
<path d="M176.598 -0.00012207H0.597656V176H176.598V-0.00012207Z" fill="white"/>
<path d="M64.245 70.9126H36.0508V74.3301H64.245V70.9126Z" fill="#111111"/>
<path d="M64.245 86.2911H36.0508V89.7086H64.245V86.2911Z" fill="#111111"/>
<path d="M43.7401 76.0385H36.0508V79.4559H43.7401V76.0385Z" fill="#111111"/>
<path d="M64.244 76.0385H56.5547V79.4559H64.244V76.0385Z" fill="#111111"/>
<path d="M64.244 81.1647H56.5547V84.5822H64.244V81.1647Z" fill="#111111"/>
<path d="M43.7401 81.1647H36.0508V84.5822H43.7401V81.1647Z" fill="#111111"/>
<path d="M43.7401 91.4175H36.0508V94.835H43.7401V91.4175Z" fill="#111111"/>
<path d="M43.7401 96.5435H36.0508V99.9609H43.7401V96.5435Z" fill="#111111"/>
<path d="M43.7401 101.67H36.0508V105.087H43.7401V101.67Z" fill="#111111"/>
<path d="M82.1815 76.0386H74.4922V79.4561H82.1815V76.0386Z" fill="#111111"/>
<path d="M82.1854 70.9125H74.4961V74.33H82.1854V70.9125Z" fill="#111111"/>
<path d="M82.1815 81.1647H74.4922V84.5822H82.1815V81.1647Z" fill="#111111"/>
<path d="M82.1815 86.2913H74.4922V89.7087H82.1815V86.2913Z" fill="#111111"/>
<path d="M82.1815 91.4174H74.4922V94.8348H82.1815V91.4174Z" fill="#111111"/>
<path d="M82.1815 96.5437H74.4922V99.9612H82.1815V96.5437Z" fill="#111111"/>
<path d="M123.641 76.0386H112.961V79.456H123.641V76.0386Z" fill="#111111"/>
<path d="M141.148 96.5435H130.469V99.9609H141.148V96.5435Z" fill="#111111"/>
<path d="M120.65 70.9125H112.961V74.33H120.65V70.9125Z" fill="#111111"/>
<path d="M141.146 101.67H133.457V105.087H141.146V101.67Z" fill="#111111"/>
<path d="M120.65 101.67H112.961V105.087H120.65V101.67Z" fill="#111111"/>
<path d="M120.65 81.1647H112.961V84.5822H120.65V81.1647Z" fill="#111111"/>
<path d="M127.476 81.1647H122.777V84.5822H127.476V81.1647Z" fill="#111111"/>
<path d="M120.65 86.2913H112.961V89.7087H120.65V86.2913Z" fill="#111111"/>
<path d="M129.609 86.2913H124.91V89.7087H129.609V86.2913Z" fill="#111111"/>
<path d="M120.65 91.4174H112.961V94.8348H120.65V91.4174Z" fill="#111111"/>
<path d="M131.754 91.4174H127.055V94.8348H131.754V91.4174Z" fill="#111111"/>
<path d="M120.65 96.5435H112.961V99.9609H120.65V96.5435Z" fill="#111111"/>
<path d="M141.146 76.0385H133.457V79.4559H141.146V76.0385Z" fill="#111111"/>
<path d="M141.146 70.9125H133.457V74.33H141.146V70.9125Z" fill="#111111"/>
<path d="M141.146 81.1647H133.457V84.5822H141.146V81.1647Z" fill="#111111"/>
<path d="M141.146 86.2911H133.457V89.7086H141.146V86.2911Z" fill="#111111"/>
<path d="M141.146 91.4174H133.457V94.8348H141.146V91.4174Z" fill="#111111"/>
<path d="M102.685 76.0387H94.9961V79.4562H102.685V76.0387Z" fill="#111111"/>
<path d="M102.685 70.9125H94.9961V74.33H102.685V70.9125Z" fill="#111111"/>
<path d="M102.685 81.1647H94.9961V84.5822H102.685V81.1647Z" fill="#111111"/>
<path d="M102.685 86.2914H94.9961V89.7089H102.685V86.2914Z" fill="#111111"/>
<path d="M102.685 91.4175H94.9961V94.835H102.685V91.4175Z" fill="#111111"/>
<path d="M102.685 96.5437H94.9961V99.9612H102.685V96.5437Z" fill="#111111"/>
<path d="M86.0331 101.67H78.3438V105.087H86.0331V101.67Z" fill="#111111"/>
<path d="M92.4432 96.5435H84.7539V99.9609H92.4432V96.5435Z" fill="#111111"/>
<path d="M92.4432 91.4174H84.7539V94.8348H92.4432V91.4174Z" fill="#111111"/>
<path d="M98.8534 101.67H91.1641V105.087H98.8534V101.67Z" fill="#111111"/>
</g>
<defs>
<clipPath id="clip0_2092_6193">
<rect width="176.172" height="176" fill="white" transform="translate(0.515625)"/>
</clipPath>
</defs>
</svg>
